<?xml version="1.0" encoding="UTF-8"?>
<svg xmlns="http://www.w3.org/2000/svg" xmlns:xlink="http://www.w3.org/1999/xlink" 
width="445pt" height="208pt" viewBox="0 0 445 208" version="1.1">
<defs>
<g>
<symbol overflow="visible" id="glyph0-0">
<path style="stroke:none;" d="M 4.09375 -1.359375 C 3.96875 -0.878906 3.75 -0.519531 3.4375 -0.28125 C 3.132812 -0.0390625 2.765625 0.078125 2.328125 0.078125 C 1.617188 0.078125 1.101562 -0.140625 0.78125 -0.578125 C 0.46875 -1.023438 0.3125 -1.554688 0.3125 -2.171875 C 0.3125 -2.859375 0.5 -3.394531 0.875 -3.78125 C 1.25 -4.175781 1.734375 -4.375 2.328125 -4.375 C 2.742188 -4.375 3.097656 -4.265625 3.390625 -4.046875 C 3.691406 -3.835938 3.90625 -3.523438 4.03125 -3.109375 L 3.46875 -2.984375 C 3.375 -3.285156 3.226562 -3.507812 3.03125 -3.65625 C 2.84375 -3.800781 2.609375 -3.875 2.328125 -3.875 C 1.859375 -3.875 1.5 -3.71875 1.25 -3.40625 C 1.007812 -3.101562 0.890625 -2.695312 0.890625 -2.1875 C 0.890625 -1.582031 1.015625 -1.132812 1.265625 -0.84375 C 1.523438 -0.550781 1.863281 -0.40625 2.28125 -0.40625 C 2.613281 -0.40625 2.882812 -0.492188 3.09375 -0.671875 C 3.300781 -0.859375 3.445312 -1.132812 3.53125 -1.5 Z M 4.09375 -1.359375 "/>
</symbol>
<symbol overflow="visible" id="glyph0-1">
<path style="stroke:none;" d="M 3.109375 -1.421875 L 0.78125 -1.421875 C 0.800781 -1.078125 0.894531 -0.8125 1.0625 -0.625 C 1.238281 -0.445312 1.457031 -0.359375 1.71875 -0.359375 C 1.925781 -0.359375 2.097656 -0.410156 2.234375 -0.515625 C 2.367188 -0.628906 2.472656 -0.789062 2.546875 -1 L 3.078125 -0.9375 C 2.992188 -0.613281 2.832031 -0.363281 2.59375 -0.1875 C 2.363281 -0.0078125 2.070312 0.078125 1.71875 0.078125 C 1.25 0.078125 0.882812 -0.0625 0.625 -0.34375 C 0.363281 -0.632812 0.234375 -1.03125 0.234375 -1.53125 C 0.234375 -2.019531 0.359375 -2.414062 0.609375 -2.71875 C 0.867188 -3.019531 1.226562 -3.171875 1.6875 -3.171875 C 1.914062 -3.171875 2.132812 -3.117188 2.34375 -3.015625 C 2.550781 -2.921875 2.726562 -2.753906 2.875 -2.515625 C 3.03125 -2.273438 3.109375 -1.910156 3.109375 -1.421875 Z M 2.5625 -1.859375 C 2.539062 -2.171875 2.441406 -2.394531 2.265625 -2.53125 C 2.085938 -2.675781 1.894531 -2.75 1.6875 -2.75 C 1.445312 -2.75 1.242188 -2.664062 1.078125 -2.5 C 0.921875 -2.332031 0.828125 -2.117188 0.796875 -1.859375 Z M 2.5625 -1.859375 "/>
</symbol>
<symbol overflow="visible" id="glyph0-2">
<path style="stroke:none;" d="M 2.9375 0 L 2.40625 0 L 2.40625 -1.890625 C 2.40625 -2.210938 2.347656 -2.429688 2.234375 -2.546875 C 2.117188 -2.660156 1.960938 -2.71875 1.765625 -2.71875 C 1.609375 -2.71875 1.457031 -2.679688 1.3125 -2.609375 C 1.175781 -2.535156 1.078125 -2.425781 1.015625 -2.28125 C 0.960938 -2.144531 0.9375 -1.953125 0.9375 -1.703125 L 0.9375 0 L 0.40625 0 L 0.40625 -3.109375 L 0.875 -3.109375 L 0.875 -2.671875 L 0.890625 -2.671875 C 1.003906 -2.835938 1.140625 -2.960938 1.296875 -3.046875 C 1.460938 -3.128906 1.65625 -3.171875 1.875 -3.171875 C 2.039062 -3.171875 2.203125 -3.140625 2.359375 -3.078125 C 2.515625 -3.023438 2.640625 -2.941406 2.734375 -2.828125 C 2.828125 -2.710938 2.882812 -2.585938 2.90625 -2.453125 C 2.925781 -2.316406 2.9375 -2.132812 2.9375 -1.90625 Z M 2.9375 0 "/>
</symbol>
<symbol overflow="visible" id="glyph0-3">
<path style="stroke:none;" d="M 1.609375 0 C 1.453125 0.03125 1.320312 0.046875 1.21875 0.046875 C 0.988281 0.046875 0.820312 0.00390625 0.71875 -0.078125 C 0.613281 -0.160156 0.546875 -0.265625 0.515625 -0.390625 C 0.492188 -0.515625 0.484375 -0.6875 0.484375 -0.90625 L 0.484375 -2.703125 L 0.109375 -2.703125 L 0.109375 -3.109375 L 0.484375 -3.109375 L 0.484375 -3.875 L 1.015625 -4.203125 L 1.015625 -3.109375 L 1.546875 -3.109375 L 1.546875 -2.703125 L 1.015625 -2.703125 L 1.015625 -0.875 C 1.015625 -0.71875 1.03125 -0.609375 1.0625 -0.546875 C 1.09375 -0.484375 1.175781 -0.453125 1.3125 -0.453125 C 1.382812 -0.453125 1.460938 -0.457031 1.546875 -0.46875 Z M 1.609375 0 "/>
</symbol>
<symbol overflow="visible" id="glyph0-4">
<path style="stroke:none;" d="M 2.078125 -3.015625 L 1.890625 -2.53125 C 1.765625 -2.601562 1.640625 -2.640625 1.515625 -2.640625 C 1.316406 -2.640625 1.164062 -2.550781 1.0625 -2.375 C 0.957031 -2.195312 0.90625 -1.945312 0.90625 -1.625 L 0.90625 0 L 0.390625 0 L 0.390625 -3.109375 L 0.859375 -3.109375 L 0.859375 -2.640625 L 0.875 -2.640625 C 1.039062 -2.992188 1.257812 -3.171875 1.53125 -3.171875 C 1.71875 -3.171875 1.898438 -3.117188 2.078125 -3.015625 Z M 2.078125 -3.015625 "/>
</symbol>
<symbol overflow="visible" id="glyph0-5">
<path style="stroke:none;" d="M 3.09375 0 L 2.546875 0 C 2.492188 -0.09375 2.457031 -0.222656 2.4375 -0.390625 C 2.082031 -0.078125 1.703125 0.078125 1.296875 0.078125 C 0.960938 0.078125 0.703125 -0.00390625 0.515625 -0.171875 C 0.328125 -0.335938 0.234375 -0.554688 0.234375 -0.828125 C 0.234375 -1.078125 0.320312 -1.285156 0.5 -1.453125 C 0.6875 -1.628906 1.003906 -1.742188 1.453125 -1.796875 L 1.953125 -1.859375 C 2.128906 -1.890625 2.28125 -1.925781 2.40625 -1.96875 C 2.40625 -2.132812 2.398438 -2.25 2.390625 -2.3125 C 2.378906 -2.375 2.347656 -2.441406 2.296875 -2.515625 C 2.253906 -2.585938 2.175781 -2.644531 2.0625 -2.6875 C 1.957031 -2.726562 1.816406 -2.75 1.640625 -2.75 C 1.410156 -2.75 1.226562 -2.707031 1.09375 -2.625 C 0.96875 -2.539062 0.878906 -2.382812 0.828125 -2.15625 L 0.3125 -2.21875 C 0.375 -2.539062 0.519531 -2.78125 0.75 -2.9375 C 0.988281 -3.09375 1.3125 -3.171875 1.71875 -3.171875 C 2.09375 -3.171875 2.367188 -3.113281 2.546875 -3 C 2.722656 -2.894531 2.828125 -2.765625 2.859375 -2.609375 C 2.898438 -2.453125 2.921875 -2.253906 2.921875 -2.015625 L 2.921875 -1.296875 C 2.921875 -0.867188 2.929688 -0.582031 2.953125 -0.4375 C 2.972656 -0.289062 3.019531 -0.144531 3.09375 0 Z M 2.40625 -1.375 L 2.40625 -1.5625 C 2.125 -1.46875 1.785156 -1.394531 1.390625 -1.34375 C 0.992188 -1.289062 0.796875 -1.117188 0.796875 -0.828125 C 0.796875 -0.691406 0.847656 -0.578125 0.953125 -0.484375 C 1.054688 -0.390625 1.210938 -0.34375 1.421875 -0.34375 C 1.679688 -0.34375 1.910156 -0.421875 2.109375 -0.578125 C 2.304688 -0.734375 2.40625 -1 2.40625 -1.375 Z M 2.40625 -1.375 "/>
</symbol>
<symbol overflow="visible" id="glyph0-6">
<path style="stroke:none;" d="M 0.921875 0 L 0.40625 0 L 0.40625 -4.296875 L 0.921875 -4.296875 Z M 0.921875 0 "/>
</symbol>
<symbol overflow="visible" id="glyph0-7">
<path style="stroke:none;" d="M 0.921875 0 L 0.40625 0 L 0.40625 -3.109375 L 0.921875 -3.109375 Z M 0.921875 -3.703125 L 0.40625 -3.703125 L 0.40625 -4.296875 L 0.921875 -4.296875 Z M 0.921875 -3.703125 "/>
</symbol>
<symbol overflow="visible" id="glyph0-8">
<path style="stroke:none;" d="M 2.875 0 L 0.125 0 L 0.125 -0.421875 L 2.09375 -2.703125 C 1.863281 -2.679688 1.664062 -2.671875 1.5 -2.671875 L 0.234375 -2.671875 L 0.234375 -3.109375 L 2.78125 -3.109375 L 2.78125 -2.765625 L 1.09375 -0.796875 C 1.0625 -0.753906 0.972656 -0.660156 0.828125 -0.515625 C 0.796875 -0.484375 0.773438 -0.457031 0.765625 -0.4375 C 0.960938 -0.445312 1.1875 -0.453125 1.4375 -0.453125 L 2.875 -0.453125 Z M 2.875 0 "/>
</symbol>
<symbol overflow="visible" id="glyph0-9">
<path style="stroke:none;" d="M 2.921875 0 L 2.421875 0 L 2.421875 -0.390625 L 2.40625 -0.390625 C 2.21875 -0.078125 1.929688 0.078125 1.546875 0.078125 C 1.171875 0.078125 0.851562 -0.0703125 0.59375 -0.375 C 0.34375 -0.675781 0.21875 -1.066406 0.21875 -1.546875 C 0.21875 -2.054688 0.335938 -2.453125 0.578125 -2.734375 C 0.816406 -3.023438 1.132812 -3.171875 1.53125 -3.171875 C 1.90625 -3.171875 2.1875 -3.03125 2.375 -2.75 L 2.390625 -2.75 L 2.390625 -4.296875 L 2.921875 -4.296875 Z M 1.609375 -0.359375 C 1.835938 -0.359375 2.03125 -0.453125 2.1875 -0.640625 C 2.351562 -0.828125 2.4375 -1.113281 2.4375 -1.5 C 2.4375 -1.882812 2.363281 -2.1875 2.21875 -2.40625 C 2.070312 -2.632812 1.859375 -2.75 1.578125 -2.75 C 1.304688 -2.75 1.097656 -2.640625 0.953125 -2.421875 C 0.816406 -2.203125 0.75 -1.910156 0.75 -1.546875 C 0.75 -1.296875 0.785156 -1.078125 0.859375 -0.890625 C 0.941406 -0.710938 1.050781 -0.578125 1.1875 -0.484375 C 1.320312 -0.398438 1.460938 -0.359375 1.609375 -0.359375 Z M 1.609375 -0.359375 "/>
</symbol>
<symbol overflow="visible" id="glyph0-10">
<path style="stroke:none;" d=""/>
</symbol>
<symbol overflow="visible" id="glyph0-11">
<path style="stroke:none;" d="M 2.140625 -2.234375 C 2.109375 -2.410156 2.035156 -2.539062 1.921875 -2.625 C 1.816406 -2.707031 1.660156 -2.75 1.453125 -2.75 C 1.253906 -2.75 1.09375 -2.710938 0.96875 -2.640625 C 0.84375 -2.578125 0.78125 -2.476562 0.78125 -2.34375 C 0.78125 -2.21875 0.828125 -2.128906 0.921875 -2.078125 C 1.023438 -2.023438 1.222656 -1.960938 1.515625 -1.890625 C 1.835938 -1.804688 2.082031 -1.734375 2.25 -1.671875 C 2.414062 -1.609375 2.539062 -1.515625 2.625 -1.390625 C 2.71875 -1.273438 2.765625 -1.113281 2.765625 -0.90625 C 2.765625 -0.632812 2.648438 -0.398438 2.421875 -0.203125 C 2.203125 -0.015625 1.898438 0.078125 1.515625 0.078125 C 1.117188 0.078125 0.8125 -0.00390625 0.59375 -0.171875 C 0.375 -0.335938 0.238281 -0.585938 0.1875 -0.921875 L 0.703125 -1.015625 C 0.734375 -0.796875 0.816406 -0.628906 0.953125 -0.515625 C 1.085938 -0.410156 1.273438 -0.359375 1.515625 -0.359375 C 1.742188 -0.359375 1.921875 -0.40625 2.046875 -0.5 C 2.171875 -0.601562 2.234375 -0.722656 2.234375 -0.859375 C 2.234375 -0.953125 2.203125 -1.023438 2.140625 -1.078125 C 2.085938 -1.140625 2.015625 -1.179688 1.921875 -1.203125 C 1.835938 -1.234375 1.648438 -1.285156 1.359375 -1.359375 C 0.910156 -1.460938 0.613281 -1.585938 0.46875 -1.734375 C 0.332031 -1.890625 0.265625 -2.070312 0.265625 -2.28125 C 0.265625 -2.539062 0.367188 -2.753906 0.578125 -2.921875 C 0.785156 -3.085938 1.066406 -3.171875 1.421875 -3.171875 C 1.785156 -3.171875 2.070312 -3.097656 2.28125 -2.953125 C 2.488281 -2.816406 2.613281 -2.601562 2.65625 -2.3125 Z M 2.140625 -2.234375 "/>
</symbol>
<symbol overflow="visible" id="glyph0-12">
<path style="stroke:none;" d="M 1.671875 -3.171875 C 2.085938 -3.171875 2.429688 -3.035156 2.703125 -2.765625 C 2.984375 -2.492188 3.125 -2.109375 3.125 -1.609375 C 3.125 -0.992188 2.972656 -0.554688 2.671875 -0.296875 C 2.378906 -0.046875 2.046875 0.078125 1.671875 0.078125 C 1.273438 0.078125 0.929688 -0.0507812 0.640625 -0.3125 C 0.359375 -0.570312 0.21875 -0.984375 0.21875 -1.546875 C 0.21875 -2.097656 0.351562 -2.503906 0.625 -2.765625 C 0.90625 -3.035156 1.253906 -3.171875 1.671875 -3.171875 Z M 1.671875 -0.359375 C 1.972656 -0.359375 2.203125 -0.46875 2.359375 -0.6875 C 2.515625 -0.914062 2.59375 -1.210938 2.59375 -1.578125 C 2.59375 -1.960938 2.503906 -2.253906 2.328125 -2.453125 C 2.148438 -2.648438 1.929688 -2.75 1.671875 -2.75 C 1.398438 -2.75 1.175781 -2.644531 1 -2.4375 C 0.832031 -2.238281 0.75 -1.941406 0.75 -1.546875 C 0.75 -1.160156 0.835938 -0.863281 1.015625 -0.65625 C 1.191406 -0.457031 1.410156 -0.359375 1.671875 -0.359375 Z M 1.671875 -0.359375 "/>
</symbol>
<symbol overflow="visible" id="glyph0-13">
<path style="stroke:none;" d="M 2.953125 -0.421875 C 2.953125 0.0234375 2.90625 0.351562 2.8125 0.5625 C 2.726562 0.78125 2.570312 0.953125 2.34375 1.078125 C 2.125 1.203125 1.859375 1.265625 1.546875 1.265625 C 1.191406 1.265625 0.894531 1.1875 0.65625 1.03125 C 0.425781 0.875 0.3125 0.617188 0.3125 0.265625 L 0.828125 0.34375 C 0.847656 0.5 0.914062 0.617188 1.03125 0.703125 C 1.144531 0.785156 1.3125 0.828125 1.53125 0.828125 C 1.8125 0.828125 2.015625 0.769531 2.140625 0.65625 C 2.265625 0.550781 2.335938 0.414062 2.359375 0.25 C 2.390625 0.09375 2.40625 -0.125 2.40625 -0.40625 C 2.175781 -0.132812 1.890625 0 1.546875 0 C 1.140625 0 0.8125 -0.144531 0.5625 -0.4375 C 0.320312 -0.738281 0.203125 -1.117188 0.203125 -1.578125 C 0.203125 -2.035156 0.320312 -2.414062 0.5625 -2.71875 C 0.800781 -3.019531 1.128906 -3.171875 1.546875 -3.171875 C 1.921875 -3.171875 2.222656 -3.023438 2.453125 -2.734375 L 2.46875 -2.734375 L 2.46875 -3.109375 L 2.953125 -3.109375 Z M 1.59375 -0.4375 C 1.820312 -0.4375 2.019531 -0.523438 2.1875 -0.703125 C 2.363281 -0.878906 2.453125 -1.175781 2.453125 -1.59375 C 2.453125 -1.96875 2.367188 -2.253906 2.203125 -2.453125 C 2.035156 -2.648438 1.832031 -2.75 1.59375 -2.75 C 1.34375 -2.75 1.140625 -2.644531 0.984375 -2.4375 C 0.828125 -2.238281 0.75 -1.960938 0.75 -1.609375 C 0.75 -1.203125 0.828125 -0.90625 0.984375 -0.71875 C 1.148438 -0.53125 1.351562 -0.4375 1.59375 -0.4375 Z M 1.59375 -0.4375 "/>
</symbol>
<symbol overflow="visible" id="glyph0-14">
<path style="stroke:none;" d="M 1.859375 -4.3125 L 1.78125 -3.859375 C 1.675781 -3.867188 1.578125 -3.875 1.484375 -3.875 C 1.347656 -3.875 1.238281 -3.847656 1.15625 -3.796875 C 1.082031 -3.742188 1.046875 -3.613281 1.046875 -3.40625 L 1.046875 -3.109375 L 1.640625 -3.109375 L 1.640625 -2.703125 L 1.046875 -2.703125 L 1.046875 0 L 0.515625 0 L 0.515625 -2.703125 L 0.046875 -2.703125 L 0.046875 -3.109375 L 0.515625 -3.109375 L 0.515625 -3.453125 C 0.515625 -3.609375 0.53125 -3.75 0.5625 -3.875 C 0.59375 -4 0.671875 -4.113281 0.796875 -4.21875 C 0.921875 -4.320312 1.113281 -4.375 1.375 -4.375 C 1.53125 -4.375 1.691406 -4.351562 1.859375 -4.3125 Z M 1.859375 -4.3125 "/>
</symbol>
<symbol overflow="visible" id="glyph0-15">
<path style="stroke:none;" d="M 0.90625 -2.703125 C 1.101562 -3.015625 1.394531 -3.171875 1.78125 -3.171875 C 2.195312 -3.171875 2.519531 -3.023438 2.75 -2.734375 C 2.988281 -2.441406 3.109375 -2.054688 3.109375 -1.578125 C 3.109375 -1.078125 2.976562 -0.675781 2.71875 -0.375 C 2.457031 -0.0703125 2.132812 0.078125 1.75 0.078125 C 1.414062 0.078125 1.148438 -0.0546875 0.953125 -0.328125 L 0.9375 -0.328125 L 0.9375 1.203125 L 0.40625 1.203125 L 0.40625 -3.109375 L 0.890625 -3.109375 L 0.890625 -2.703125 Z M 1.71875 -0.359375 C 1.96875 -0.359375 2.171875 -0.457031 2.328125 -0.65625 C 2.484375 -0.863281 2.5625 -1.171875 2.5625 -1.578125 C 2.5625 -1.960938 2.484375 -2.253906 2.328125 -2.453125 C 2.179688 -2.660156 1.984375 -2.765625 1.734375 -2.765625 C 1.484375 -2.765625 1.273438 -2.648438 1.109375 -2.421875 C 0.953125 -2.191406 0.875 -1.894531 0.875 -1.53125 C 0.875 -1.144531 0.953125 -0.851562 1.109375 -0.65625 C 1.265625 -0.457031 1.46875 -0.359375 1.71875 -0.359375 Z M 1.71875 -0.359375 "/>
</symbol>
<symbol overflow="visible" id="glyph0-16">
<path style="stroke:none;" d="M 4.609375 0 L 4.09375 0 L 4.09375 -1.96875 C 4.09375 -2.113281 4.082031 -2.234375 4.0625 -2.328125 C 4.039062 -2.429688 3.988281 -2.519531 3.90625 -2.59375 C 3.820312 -2.675781 3.695312 -2.71875 3.53125 -2.71875 C 3.320312 -2.71875 3.140625 -2.644531 2.984375 -2.5 C 2.835938 -2.363281 2.765625 -2.132812 2.765625 -1.8125 L 2.765625 0 L 2.234375 0 L 2.234375 -2.015625 C 2.234375 -2.285156 2.1875 -2.46875 2.09375 -2.5625 C 2 -2.664062 1.863281 -2.71875 1.6875 -2.71875 C 1.46875 -2.71875 1.285156 -2.640625 1.140625 -2.484375 C 0.992188 -2.328125 0.921875 -2.035156 0.921875 -1.609375 L 0.921875 0 L 0.390625 0 L 0.390625 -3.109375 L 0.859375 -3.109375 L 0.859375 -2.671875 L 0.875 -2.671875 C 1.082031 -3.003906 1.394531 -3.171875 1.8125 -3.171875 C 2.03125 -3.171875 2.210938 -3.125 2.359375 -3.03125 C 2.515625 -2.945312 2.625 -2.816406 2.6875 -2.640625 C 2.914062 -2.992188 3.234375 -3.171875 3.640625 -3.171875 C 3.960938 -3.171875 4.203125 -3.082031 4.359375 -2.90625 C 4.523438 -2.738281 4.609375 -2.484375 4.609375 -2.140625 Z M 4.609375 0 "/>
</symbol>
<symbol overflow="visible" id="glyph0-17">
<path style="stroke:none;" d="M 2.953125 -1.078125 C 2.878906 -0.679688 2.71875 -0.390625 2.46875 -0.203125 C 2.226562 -0.015625 1.957031 0.078125 1.65625 0.078125 C 1.195312 0.078125 0.84375 -0.0664062 0.59375 -0.359375 C 0.351562 -0.660156 0.234375 -1.054688 0.234375 -1.546875 C 0.234375 -1.953125 0.300781 -2.273438 0.4375 -2.515625 C 0.582031 -2.765625 0.757812 -2.9375 0.96875 -3.03125 C 1.1875 -3.125 1.414062 -3.171875 1.65625 -3.171875 C 1.96875 -3.171875 2.238281 -3.085938 2.46875 -2.921875 C 2.695312 -2.765625 2.835938 -2.523438 2.890625 -2.203125 L 2.375 -2.125 C 2.320312 -2.332031 2.238281 -2.488281 2.125 -2.59375 C 2.007812 -2.695312 1.859375 -2.75 1.671875 -2.75 C 1.378906 -2.75 1.15625 -2.644531 1 -2.4375 C 0.851562 -2.226562 0.78125 -1.9375 0.78125 -1.5625 C 0.78125 -1.175781 0.851562 -0.878906 1 -0.671875 C 1.144531 -0.460938 1.359375 -0.359375 1.640625 -0.359375 C 1.867188 -0.359375 2.046875 -0.421875 2.171875 -0.546875 C 2.304688 -0.679688 2.390625 -0.878906 2.421875 -1.140625 Z M 2.953125 -1.078125 "/>
</symbol>
<symbol overflow="visible" id="glyph0-18">
<path style="stroke:none;" d="M 2.921875 0 L 2.453125 0 L 2.453125 -0.453125 L 2.4375 -0.453125 C 2.195312 -0.0976562 1.867188 0.078125 1.453125 0.078125 C 1.242188 0.078125 1.046875 0.0234375 0.859375 -0.078125 C 0.671875 -0.179688 0.546875 -0.320312 0.484375 -0.5 C 0.421875 -0.675781 0.390625 -0.90625 0.390625 -1.1875 L 0.390625 -3.109375 L 0.921875 -3.109375 L 0.921875 -1.390625 C 0.921875 -1.109375 0.929688 -0.90625 0.953125 -0.78125 C 0.984375 -0.664062 1.054688 -0.570312 1.171875 -0.5 C 1.285156 -0.425781 1.414062 -0.390625 1.5625 -0.390625 C 1.757812 -0.390625 1.945312 -0.457031 2.125 -0.59375 C 2.300781 -0.726562 2.390625 -1.015625 2.390625 -1.453125 L 2.390625 -3.109375 L 2.921875 -3.109375 Z M 2.921875 0 "/>
</symbol>
<symbol overflow="visible" id="glyph0-19">
<path style="stroke:none;" d="M 2.34375 -4.375 C 2.945312 -4.375 3.4375 -4.164062 3.8125 -3.75 C 4.195312 -3.34375 4.390625 -2.804688 4.390625 -2.140625 C 4.390625 -1.472656 4.195312 -0.9375 3.8125 -0.53125 C 3.425781 -0.125 2.9375 0.078125 2.34375 0.078125 C 1.71875 0.078125 1.21875 -0.128906 0.84375 -0.546875 C 0.46875 -0.972656 0.28125 -1.488281 0.28125 -2.09375 C 0.28125 -2.800781 0.46875 -3.359375 0.84375 -3.765625 C 1.226562 -4.171875 1.726562 -4.375 2.34375 -4.375 Z M 2.328125 -0.40625 C 2.765625 -0.40625 3.117188 -0.554688 3.390625 -0.859375 C 3.660156 -1.171875 3.796875 -1.597656 3.796875 -2.140625 C 3.796875 -2.703125 3.65625 -3.128906 3.375 -3.421875 C 3.101562 -3.722656 2.757812 -3.875 2.34375 -3.875 C 1.914062 -3.875 1.5625 -3.726562 1.28125 -3.4375 C 1.007812 -3.144531 0.875 -2.691406 0.875 -2.078125 C 0.875 -1.585938 1.007812 -1.1875 1.28125 -0.875 C 1.550781 -0.5625 1.898438 -0.40625 2.328125 -0.40625 Z M 2.328125 -0.40625 "/>
</symbol>
<symbol overflow="visible" id="glyph0-20">
<path style="stroke:none;" d="M 3.96875 0 L 3.265625 0 L 2.40625 -1.21875 C 2.195312 -1.519531 2.0625 -1.71875 2 -1.8125 C 2 -1.78125 1.570312 -1.175781 0.71875 0 L 0.03125 0 L 1.6875 -2.234375 L 0.21875 -4.296875 L 0.90625 -4.296875 L 1.8125 -3.015625 C 1.90625 -2.867188 1.972656 -2.75 2.015625 -2.65625 C 2.097656 -2.789062 2.503906 -3.335938 3.234375 -4.296875 L 3.84375 -4.296875 L 2.34375 -2.28125 Z M 3.96875 0 "/>
</symbol>
<symbol overflow="visible" id="glyph0-21">
<path style="stroke:none;" d="M 0.484375 -4.296875 L 1.96875 -4.296875 C 2.226562 -4.296875 2.453125 -4.28125 2.640625 -4.25 C 2.828125 -4.226562 3.003906 -4.164062 3.171875 -4.0625 C 3.335938 -3.957031 3.484375 -3.816406 3.609375 -3.640625 C 3.742188 -3.460938 3.847656 -3.253906 3.921875 -3.015625 C 3.992188 -2.785156 4.03125 -2.503906 4.03125 -2.171875 C 4.03125 -1.535156 3.878906 -1.015625 3.578125 -0.609375 C 3.273438 -0.203125 2.757812 0 2.03125 0 L 0.484375 0 Z M 1.046875 -0.515625 L 1.96875 -0.515625 C 2.15625 -0.515625 2.320312 -0.523438 2.46875 -0.546875 C 2.613281 -0.566406 2.757812 -0.628906 2.90625 -0.734375 C 3.0625 -0.835938 3.191406 -1.003906 3.296875 -1.234375 C 3.398438 -1.472656 3.453125 -1.789062 3.453125 -2.1875 C 3.453125 -2.394531 3.429688 -2.59375 3.390625 -2.78125 C 3.347656 -2.96875 3.273438 -3.140625 3.171875 -3.296875 C 3.078125 -3.453125 2.960938 -3.5625 2.828125 -3.625 C 2.691406 -3.695312 2.5625 -3.738281 2.4375 -3.75 C 2.3125 -3.769531 2.148438 -3.78125 1.953125 -3.78125 L 1.046875 -3.78125 Z M 1.046875 -0.515625 "/>
</symbol>
<symbol overflow="visible" id="glyph0-22">
<path style="stroke:none;" d="M 4.546875 0 L 4 0 L 4 -3.59375 L 3.984375 -3.59375 L 2.75 0 L 2.25 0 L 1.015625 -3.65625 L 1 -3.65625 L 1 0 L 0.453125 0 L 0.453125 -4.296875 L 1.3125 -4.296875 L 2.328125 -1.25 C 2.441406 -0.914062 2.503906 -0.707031 2.515625 -0.625 L 2.53125 -0.625 C 2.582031 -0.789062 2.660156 -1.019531 2.765625 -1.3125 L 3.78125 -4.296875 L 4.546875 -4.296875 Z M 4.546875 0 "/>
</symbol>
<symbol overflow="visible" id="glyph0-23">
<path style="stroke:none;" d="M 4.296875 -3.109375 L 3.328125 0 L 2.78125 0 L 2.28125 -1.859375 C 2.28125 -1.859375 2.257812 -1.941406 2.21875 -2.109375 C 2.1875 -2.285156 2.171875 -2.378906 2.171875 -2.390625 L 2.15625 -2.390625 L 1.53125 0 L 0.984375 0 L 0.03125 -3.109375 L 0.578125 -3.109375 L 1.25 -0.640625 L 1.359375 -1.0625 L 1.90625 -3.109375 L 2.453125 -3.109375 L 2.875 -1.484375 C 2.988281 -1.035156 3.050781 -0.78125 3.0625 -0.71875 L 3.078125 -0.71875 L 3.78125 -3.109375 Z M 4.296875 -3.109375 "/>
</symbol>
<symbol overflow="visible" id="glyph0-24">
<path style="stroke:none;" d="M 2.9375 0 L 2.40625 0 L 2.40625 -1.96875 C 2.40625 -2.21875 2.347656 -2.40625 2.234375 -2.53125 C 2.128906 -2.65625 1.972656 -2.71875 1.765625 -2.71875 C 1.546875 -2.71875 1.347656 -2.644531 1.171875 -2.5 C 1.003906 -2.351562 0.921875 -2.085938 0.921875 -1.703125 L 0.921875 0 L 0.40625 0 L 0.40625 -4.296875 L 0.921875 -4.296875 L 0.921875 -2.75 C 1.171875 -3.03125 1.484375 -3.171875 1.859375 -3.171875 C 2.066406 -3.171875 2.257812 -3.128906 2.4375 -3.046875 C 2.625 -2.972656 2.753906 -2.847656 2.828125 -2.671875 C 2.898438 -2.503906 2.9375 -2.269531 2.9375 -1.96875 Z M 2.9375 0 "/>
</symbol>
<symbol overflow="visible" id="glyph0-25">
<path style="stroke:none;" d="M 3.015625 -3.03125 C 2.992188 -3.3125 2.894531 -3.519531 2.71875 -3.65625 C 2.539062 -3.789062 2.289062 -3.859375 1.96875 -3.859375 C 1.675781 -3.859375 1.4375 -3.800781 1.25 -3.6875 C 1.070312 -3.582031 0.984375 -3.425781 0.984375 -3.21875 C 0.984375 -3.03125 1.050781 -2.890625 1.1875 -2.796875 C 1.332031 -2.710938 1.601562 -2.625 2 -2.53125 C 2.351562 -2.457031 2.644531 -2.378906 2.875 -2.296875 C 3.101562 -2.210938 3.296875 -2.082031 3.453125 -1.90625 C 3.609375 -1.738281 3.6875 -1.507812 3.6875 -1.21875 C 3.6875 -0.84375 3.539062 -0.53125 3.25 -0.28125 C 2.957031 -0.0390625 2.570312 0.078125 2.09375 0.078125 C 1.5 0.078125 1.050781 -0.0546875 0.75 -0.328125 C 0.445312 -0.597656 0.285156 -0.945312 0.265625 -1.375 L 0.8125 -1.421875 C 0.832031 -1.078125 0.960938 -0.828125 1.203125 -0.671875 C 1.441406 -0.515625 1.734375 -0.4375 2.078125 -0.4375 C 2.398438 -0.4375 2.65625 -0.5 2.84375 -0.625 C 3.039062 -0.757812 3.140625 -0.941406 3.140625 -1.171875 C 3.140625 -1.398438 3.035156 -1.566406 2.828125 -1.671875 C 2.628906 -1.785156 2.285156 -1.894531 1.796875 -2 C 1.316406 -2.101562 0.96875 -2.25 0.75 -2.4375 C 0.539062 -2.625 0.4375 -2.867188 0.4375 -3.171875 C 0.4375 -3.515625 0.570312 -3.800781 0.84375 -4.03125 C 1.113281 -4.257812 1.484375 -4.375 1.953125 -4.375 C 2.421875 -4.375 2.800781 -4.257812 3.09375 -4.03125 C 3.382812 -3.8125 3.539062 -3.492188 3.5625 -3.078125 Z M 3.015625 -3.03125 "/>
</symbol>
<symbol overflow="visible" id="glyph0-26">
<path style="stroke:none;" d="M 3.140625 0 L 0.453125 0 L 0.453125 -4.296875 L 1.015625 -4.296875 L 1.015625 -0.515625 L 3.140625 -0.515625 Z M 3.140625 0 "/>
</symbol>
<symbol overflow="visible" id="glyph0-27">
<path style="stroke:none;" d="M 3.859375 -1.8125 C 3.859375 -1.59375 3.84375 -1.390625 3.8125 -1.203125 C 3.789062 -1.015625 3.726562 -0.820312 3.625 -0.625 C 3.519531 -0.425781 3.347656 -0.257812 3.109375 -0.125 C 2.878906 0.0078125 2.566406 0.078125 2.171875 0.078125 C 1.785156 0.078125 1.472656 0.0195312 1.234375 -0.09375 C 1.003906 -0.21875 0.832031 -0.367188 0.71875 -0.546875 C 0.613281 -0.734375 0.546875 -0.925781 0.515625 -1.125 C 0.484375 -1.332031 0.46875 -1.5625 0.46875 -1.8125 L 0.46875 -4.296875 L 1.046875 -4.296875 L 1.046875 -1.8125 C 1.046875 -1.5625 1.0625 -1.34375 1.09375 -1.15625 C 1.132812 -0.96875 1.234375 -0.800781 1.390625 -0.65625 C 1.546875 -0.507812 1.789062 -0.4375 2.125 -0.4375 C 2.457031 -0.4375 2.707031 -0.492188 2.875 -0.609375 C 3.039062 -0.722656 3.148438 -0.875 3.203125 -1.0625 C 3.253906 -1.257812 3.28125 -1.507812 3.28125 -1.8125 L 3.28125 -4.296875 L 3.859375 -4.296875 Z M 3.859375 -1.8125 "/>
</symbol>
<symbol overflow="visible" id="glyph0-28">
<path style="stroke:none;" d="M 4.265625 0 L 3.546875 0 C 3.117188 -0.675781 2.851562 -1.09375 2.75 -1.25 C 2.644531 -1.40625 2.535156 -1.535156 2.421875 -1.640625 C 2.304688 -1.753906 2.195312 -1.820312 2.09375 -1.84375 C 2 -1.875 1.867188 -1.890625 1.703125 -1.890625 L 1.046875 -1.890625 L 1.046875 0 L 0.484375 0 L 0.484375 -4.296875 L 2.375 -4.296875 C 2.632812 -4.296875 2.851562 -4.28125 3.03125 -4.25 C 3.207031 -4.21875 3.363281 -4.144531 3.5 -4.03125 C 3.632812 -3.925781 3.734375 -3.789062 3.796875 -3.625 C 3.867188 -3.46875 3.90625 -3.300781 3.90625 -3.125 C 3.90625 -2.800781 3.800781 -2.539062 3.59375 -2.34375 C 3.394531 -2.144531 3.097656 -2.019531 2.703125 -1.96875 L 2.703125 -1.953125 C 2.992188 -1.828125 3.265625 -1.566406 3.515625 -1.171875 Z M 1.046875 -2.40625 L 2.265625 -2.40625 C 2.515625 -2.40625 2.707031 -2.425781 2.84375 -2.46875 C 2.988281 -2.507812 3.101562 -2.585938 3.1875 -2.703125 C 3.28125 -2.828125 3.328125 -2.96875 3.328125 -3.125 C 3.328125 -3.3125 3.253906 -3.472656 3.109375 -3.609375 C 2.960938 -3.753906 2.726562 -3.828125 2.40625 -3.828125 L 1.046875 -3.828125 Z M 1.046875 -2.40625 "/>
</symbol>
<symbol overflow="visible" id="glyph0-29">
<path style="stroke:none;" d="M 0.46875 -4.296875 L 2.078125 -4.296875 C 2.335938 -4.296875 2.554688 -4.28125 2.734375 -4.25 C 2.921875 -4.226562 3.09375 -4.164062 3.25 -4.0625 C 3.414062 -3.957031 3.535156 -3.8125 3.609375 -3.625 C 3.691406 -3.445312 3.734375 -3.253906 3.734375 -3.046875 C 3.734375 -2.648438 3.601562 -2.332031 3.34375 -2.09375 C 3.09375 -1.851562 2.6875 -1.734375 2.125 -1.734375 L 1.03125 -1.734375 L 1.03125 0 L 0.46875 0 Z M 1.03125 -2.25 L 2.140625 -2.25 C 2.816406 -2.25 3.15625 -2.507812 3.15625 -3.03125 C 3.15625 -3.207031 3.109375 -3.359375 3.015625 -3.484375 C 2.929688 -3.617188 2.820312 -3.703125 2.6875 -3.734375 C 2.5625 -3.765625 2.375 -3.78125 2.125 -3.78125 L 1.03125 -3.78125 Z M 1.03125 -2.25 "/>
</symbol>
<symbol overflow="visible" id="glyph0-30">
<path style="stroke:none;" d="M 2.515625 -1.375 C 2.515625 -0.851562 2.410156 -0.476562 2.203125 -0.25 C 1.992188 -0.03125 1.695312 0.078125 1.3125 0.078125 C 0.925781 0.078125 0.632812 -0.03125 0.4375 -0.25 C 0.25 -0.46875 0.15625 -0.789062 0.15625 -1.21875 L 0.671875 -1.296875 C 0.671875 -1.015625 0.722656 -0.800781 0.828125 -0.65625 C 0.941406 -0.507812 1.101562 -0.4375 1.3125 -0.4375 C 1.507812 -0.4375 1.65625 -0.484375 1.75 -0.578125 C 1.84375 -0.671875 1.898438 -0.773438 1.921875 -0.890625 C 1.941406 -1.015625 1.953125 -1.164062 1.953125 -1.34375 L 1.953125 -4.296875 L 2.515625 -4.296875 Z M 2.515625 -1.375 "/>
</symbol>
<symbol overflow="visible" id="glyph0-31">
<path style="stroke:none;" d="M 0.9375 -2.765625 C 1.132812 -3.035156 1.414062 -3.171875 1.78125 -3.171875 C 2.175781 -3.171875 2.492188 -3.023438 2.734375 -2.734375 C 2.984375 -2.453125 3.109375 -2.078125 3.109375 -1.609375 C 3.109375 -1.066406 2.972656 -0.648438 2.703125 -0.359375 C 2.429688 -0.0664062 2.117188 0.078125 1.765625 0.078125 C 1.390625 0.078125 1.101562 -0.078125 0.90625 -0.390625 L 0.890625 -0.390625 L 0.890625 0 L 0.40625 0 L 0.40625 -4.296875 L 0.921875 -4.296875 L 0.921875 -2.765625 Z M 1.71875 -0.359375 C 1.957031 -0.359375 2.15625 -0.460938 2.3125 -0.671875 C 2.476562 -0.878906 2.5625 -1.175781 2.5625 -1.5625 C 2.5625 -1.925781 2.488281 -2.210938 2.34375 -2.421875 C 2.195312 -2.640625 1.992188 -2.75 1.734375 -2.75 C 1.484375 -2.75 1.28125 -2.640625 1.125 -2.421875 C 0.96875 -2.203125 0.890625 -1.921875 0.890625 -1.578125 C 0.890625 -1.242188 0.921875 -1.007812 0.984375 -0.875 C 1.046875 -0.738281 1.140625 -0.617188 1.265625 -0.515625 C 1.398438 -0.410156 1.550781 -0.359375 1.71875 -0.359375 Z M 1.71875 -0.359375 "/>
</symbol>
<symbol overflow="visible" id="glyph0-32">
<path style="stroke:none;" d="M 2.953125 -3.109375 L 1.765625 0.046875 C 1.765625 0.0546875 1.765625 0.0664062 1.765625 0.078125 C 1.648438 0.421875 1.515625 0.703125 1.359375 0.921875 C 1.210938 1.148438 1 1.265625 0.71875 1.265625 C 0.625 1.265625 0.507812 1.242188 0.375 1.203125 L 0.3125 0.703125 C 0.414062 0.734375 0.519531 0.75 0.625 0.75 C 0.8125 0.75 0.941406 0.691406 1.015625 0.578125 C 1.097656 0.472656 1.1875 0.28125 1.28125 0 L 0.09375 -3.109375 L 0.671875 -3.109375 L 1.390625 -1.078125 C 1.441406 -0.953125 1.488281 -0.789062 1.53125 -0.59375 L 1.546875 -0.59375 C 1.597656 -0.8125 1.660156 -1.023438 1.734375 -1.234375 L 2.421875 -3.109375 Z M 2.953125 -3.109375 "/>
</symbol>
<symbol overflow="visible" id="glyph0-33">
<path style="stroke:none;" d="M 3.6875 0 L 0.46875 0 L 0.46875 -4.296875 L 3.578125 -4.296875 L 3.578125 -3.78125 L 1.046875 -3.78125 L 1.046875 -2.46875 L 3.421875 -2.46875 L 3.421875 -1.96875 L 1.046875 -1.96875 L 1.046875 -0.515625 L 3.6875 -0.515625 Z M 3.6875 0 "/>
</symbol>
<symbol overflow="visible" id="glyph0-34">
<path style="stroke:none;" d="M 3.53125 -3.78125 L 2.109375 -3.78125 L 2.109375 0 L 1.546875 0 L 1.546875 -3.78125 L 0.125 -3.78125 L 0.125 -4.296875 L 3.53125 -4.296875 Z M 3.53125 -3.78125 "/>
</symbol>
</g>
</defs>
<g id="surface39098">
<rect x="0" y="0" width="445" height="208" style="fill:rgb(100%,100%,100%);fill-opacity:1;stroke:none;"/>
<path style="fill:none;stroke-width:0.1;stroke-linecap:butt;stroke-linejoin:miter;stroke:rgb(0%,0%,0%);stroke-opacity:1;stroke-miterlimit:10;" d="M 16.375234 5.825078 L 24.8225 5.825078 " transform="matrix(10,0,0,10,-46.1,-20.2)"/>
<path style="fill:none;stroke-width:0.1;stroke-linecap:butt;stroke-linejoin:miter;stroke:rgb(0%,0%,0%);stroke-opacity:1;stroke-miterlimit:10;" d="M 16.375234 2.025078 L 24.8225 2.025078 " transform="matrix(10,0,0,10,-46.1,-20.2)"/>
<g style="fill:rgb(0%,0%,0%);fill-opacity:1;">
  <use xlink:href="#glyph0-0" x="130.515625" y="17.851562"/>
  <use xlink:href="#glyph0-1" x="134.851563" y="17.851562"/>
  <use xlink:href="#glyph0-2" x="138.191406" y="17.851562"/>
  <use xlink:href="#glyph0-3" x="141.53125" y="17.851562"/>
  <use xlink:href="#glyph0-4" x="143.201172" y="17.851562"/>
  <use xlink:href="#glyph0-5" x="145.203125" y="17.851562"/>
  <use xlink:href="#glyph0-6" x="148.542969" y="17.851562"/>
  <use xlink:href="#glyph0-7" x="149.880859" y="17.851562"/>
  <use xlink:href="#glyph0-8" x="151.21875" y="17.851562"/>
  <use xlink:href="#glyph0-1" x="154.216797" y="17.851562"/>
  <use xlink:href="#glyph0-9" x="157.556641" y="17.851562"/>
  <use xlink:href="#glyph0-10" x="160.896484" y="17.851562"/>
  <use xlink:href="#glyph0-11" x="162.566406" y="17.851562"/>
  <use xlink:href="#glyph0-3" x="165.564453" y="17.851562"/>
  <use xlink:href="#glyph0-12" x="167.234375" y="17.851562"/>
  <use xlink:href="#glyph0-4" x="170.574219" y="17.851562"/>
  <use xlink:href="#glyph0-5" x="172.576172" y="17.851562"/>
  <use xlink:href="#glyph0-13" x="175.916016" y="17.851562"/>
  <use xlink:href="#glyph0-1" x="179.255859" y="17.851562"/>
  <use xlink:href="#glyph0-10" x="182.595703" y="17.851562"/>
  <use xlink:href="#glyph0-12" x="184.265625" y="17.851562"/>
  <use xlink:href="#glyph0-14" x="187.605469" y="17.851562"/>
</g>
<g style="fill:rgb(0%,0%,0%);fill-opacity:1;">
  <use xlink:href="#glyph0-15" x="136.355469" y="25.851562"/>
  <use xlink:href="#glyph0-1" x="139.695313" y="25.851562"/>
  <use xlink:href="#glyph0-4" x="143.035156" y="25.851562"/>
  <use xlink:href="#glyph0-14" x="145.037109" y="25.851562"/>
  <use xlink:href="#glyph0-12" x="146.707031" y="25.851562"/>
  <use xlink:href="#glyph0-4" x="150.046875" y="25.851562"/>
  <use xlink:href="#glyph0-16" x="152.048828" y="25.851562"/>
  <use xlink:href="#glyph0-5" x="157.048828" y="25.851562"/>
  <use xlink:href="#glyph0-2" x="160.388672" y="25.851562"/>
  <use xlink:href="#glyph0-17" x="163.728516" y="25.851562"/>
  <use xlink:href="#glyph0-1" x="166.726563" y="25.851562"/>
  <use xlink:href="#glyph0-10" x="170.066406" y="25.851562"/>
  <use xlink:href="#glyph0-9" x="171.736328" y="25.851562"/>
  <use xlink:href="#glyph0-5" x="175.076172" y="25.851562"/>
  <use xlink:href="#glyph0-3" x="178.416016" y="25.851562"/>
  <use xlink:href="#glyph0-5" x="180.085938" y="25.851562"/>
</g>
<path style="fill:none;stroke-width:0.1;stroke-linecap:butt;stroke-linejoin:miter;stroke:rgb(0%,0%,0%);stroke-opacity:1;stroke-miterlimit:10;" d="M 16.715469 13.850078 L 27.529141 13.850078 " transform="matrix(10,0,0,10,-46.1,-20.2)"/>
<path style="fill:none;stroke-width:0.1;stroke-linecap:butt;stroke-linejoin:miter;stroke:rgb(0%,0%,0%);stroke-opacity:1;stroke-miterlimit:10;" d="M 16.715469 10.050078 L 27.529141 10.050078 " transform="matrix(10,0,0,10,-46.1,-20.2)"/>
<g style="fill:rgb(0%,0%,0%);fill-opacity:1;">
  <use xlink:href="#glyph0-5" x="149.917969" y="98.101562"/>
  <use xlink:href="#glyph0-17" x="153.257812" y="98.101562"/>
  <use xlink:href="#glyph0-17" x="156.255859" y="98.101562"/>
  <use xlink:href="#glyph0-12" x="159.253906" y="98.101562"/>
  <use xlink:href="#glyph0-18" x="162.59375" y="98.101562"/>
  <use xlink:href="#glyph0-2" x="165.933594" y="98.101562"/>
  <use xlink:href="#glyph0-3" x="169.273437" y="98.101562"/>
  <use xlink:href="#glyph0-7" x="170.943359" y="98.101562"/>
  <use xlink:href="#glyph0-2" x="172.28125" y="98.101562"/>
  <use xlink:href="#glyph0-13" x="175.621094" y="98.101562"/>
  <use xlink:href="#glyph0-10" x="178.960937" y="98.101562"/>
  <use xlink:href="#glyph0-9" x="180.630859" y="98.101562"/>
  <use xlink:href="#glyph0-5" x="183.970703" y="98.101562"/>
  <use xlink:href="#glyph0-3" x="187.310547" y="98.101562"/>
  <use xlink:href="#glyph0-5" x="188.980469" y="98.101562"/>
  <use xlink:href="#glyph0-10" x="192.320312" y="98.101562"/>
  <use xlink:href="#glyph0-7" x="193.990234" y="98.101562"/>
  <use xlink:href="#glyph0-2" x="195.328125" y="98.101562"/>
  <use xlink:href="#glyph0-10" x="198.667969" y="98.101562"/>
</g>
<g style="fill:rgb(0%,0%,0%);fill-opacity:1;">
  <use xlink:href="#glyph0-19" x="135.074219" y="106.101562"/>
  <use xlink:href="#glyph0-15" x="139.742187" y="106.101562"/>
  <use xlink:href="#glyph0-1" x="143.082031" y="106.101562"/>
  <use xlink:href="#glyph0-2" x="146.421875" y="106.101562"/>
  <use xlink:href="#glyph0-10" x="149.761719" y="106.101562"/>
  <use xlink:href="#glyph0-20" x="151.431641" y="106.101562"/>
  <use xlink:href="#glyph0-21" x="155.435547" y="106.101562"/>
  <use xlink:href="#glyph0-22" x="159.771484" y="106.101562"/>
  <use xlink:href="#glyph0-12" x="164.771484" y="106.101562"/>
  <use xlink:href="#glyph0-21" x="168.111328" y="106.101562"/>
  <use xlink:href="#glyph0-10" x="172.447266" y="106.101562"/>
  <use xlink:href="#glyph0-9" x="174.117187" y="106.101562"/>
  <use xlink:href="#glyph0-5" x="177.457031" y="106.101562"/>
  <use xlink:href="#glyph0-3" x="180.796875" y="106.101562"/>
  <use xlink:href="#glyph0-5" x="182.466797" y="106.101562"/>
  <use xlink:href="#glyph0-23" x="185.806641" y="106.101562"/>
  <use xlink:href="#glyph0-5" x="190.142578" y="106.101562"/>
  <use xlink:href="#glyph0-4" x="193.482422" y="106.101562"/>
  <use xlink:href="#glyph0-1" x="195.484375" y="106.101562"/>
  <use xlink:href="#glyph0-24" x="198.824219" y="106.101562"/>
  <use xlink:href="#glyph0-12" x="202.164062" y="106.101562"/>
  <use xlink:href="#glyph0-18" x="205.503906" y="106.101562"/>
  <use xlink:href="#glyph0-11" x="208.84375" y="106.101562"/>
  <use xlink:href="#glyph0-1" x="211.841797" y="106.101562"/>
</g>
<path style="fill-rule:evenodd;fill:rgb(100%,100%,100%);fill-opacity:1;stroke-width:0.1;stroke-linecap:butt;stroke-linejoin:miter;stroke:rgb(0%,0%,0%);stroke-opacity:1;stroke-miterlimit:10;" d="M 5.471328 10.650078 L 13.72875 10.650078 L 13.72875 13.350078 L 5.471328 13.350078 Z M 5.471328 10.650078 " transform="matrix(10,0,0,10,-46.1,-20.2)"/>
<g style="fill:rgb(0%,0%,0%);fill-opacity:1;">
  <use xlink:href="#glyph0-25" x="26.882812" y="98.648438"/>
  <use xlink:href="#glyph0-26" x="30.886719" y="98.648438"/>
  <use xlink:href="#glyph0-27" x="34.226562" y="98.648438"/>
  <use xlink:href="#glyph0-28" x="38.5625" y="98.648438"/>
  <use xlink:href="#glyph0-22" x="42.898438" y="98.648438"/>
  <use xlink:href="#glyph0-10" x="47.898438" y="98.648438"/>
  <use xlink:href="#glyph0-4" x="49.568359" y="98.648438"/>
  <use xlink:href="#glyph0-1" x="51.570312" y="98.648438"/>
  <use xlink:href="#glyph0-11" x="54.910156" y="98.648438"/>
  <use xlink:href="#glyph0-12" x="57.908203" y="98.648438"/>
  <use xlink:href="#glyph0-18" x="61.248047" y="98.648438"/>
  <use xlink:href="#glyph0-4" x="64.587891" y="98.648438"/>
  <use xlink:href="#glyph0-17" x="66.589844" y="98.648438"/>
  <use xlink:href="#glyph0-1" x="69.587891" y="98.648438"/>
</g>
<g style="fill:rgb(0%,0%,0%);fill-opacity:1;">
  <use xlink:href="#glyph0-16" x="38.054688" y="106.648438"/>
  <use xlink:href="#glyph0-5" x="43.054688" y="106.648438"/>
  <use xlink:href="#glyph0-2" x="46.394531" y="106.648438"/>
  <use xlink:href="#glyph0-5" x="49.734375" y="106.648438"/>
  <use xlink:href="#glyph0-13" x="53.074219" y="106.648438"/>
  <use xlink:href="#glyph0-1" x="56.414062" y="106.648438"/>
  <use xlink:href="#glyph0-4" x="59.753906" y="106.648438"/>
</g>
<path style="fill-rule:evenodd;fill:rgb(100%,100%,100%);fill-opacity:1;stroke-width:0.1;stroke-linecap:butt;stroke-linejoin:miter;stroke:rgb(0%,0%,0%);stroke-opacity:1;stroke-miterlimit:10;" d="M 4.66 2.600078 L 14.390078 2.600078 L 14.390078 5.300078 L 4.66 5.300078 Z M 4.66 2.600078 " transform="matrix(10,0,0,10,-46.1,-20.2)"/>
<g style="fill:rgb(0%,0%,0%);fill-opacity:1;">
  <use xlink:href="#glyph0-21" x="17.273438" y="18.148438"/>
  <use xlink:href="#glyph0-5" x="21.609375" y="18.148438"/>
  <use xlink:href="#glyph0-3" x="24.949219" y="18.148438"/>
  <use xlink:href="#glyph0-5" x="26.619141" y="18.148438"/>
  <use xlink:href="#glyph0-10" x="29.958984" y="18.148438"/>
  <use xlink:href="#glyph0-17" x="31.628906" y="18.148438"/>
  <use xlink:href="#glyph0-12" x="34.626953" y="18.148438"/>
  <use xlink:href="#glyph0-6" x="37.966797" y="18.148438"/>
  <use xlink:href="#glyph0-6" x="39.304688" y="18.148438"/>
  <use xlink:href="#glyph0-1" x="40.642578" y="18.148438"/>
  <use xlink:href="#glyph0-17" x="43.982422" y="18.148438"/>
  <use xlink:href="#glyph0-3" x="46.980469" y="18.148438"/>
  <use xlink:href="#glyph0-7" x="48.650391" y="18.148438"/>
  <use xlink:href="#glyph0-12" x="49.988281" y="18.148438"/>
  <use xlink:href="#glyph0-2" x="53.328125" y="18.148438"/>
  <use xlink:href="#glyph0-10" x="56.667969" y="18.148438"/>
  <use xlink:href="#glyph0-11" x="58.337891" y="18.148438"/>
  <use xlink:href="#glyph0-12" x="61.335938" y="18.148438"/>
  <use xlink:href="#glyph0-14" x="64.675781" y="18.148438"/>
  <use xlink:href="#glyph0-3" x="66.345703" y="18.148438"/>
  <use xlink:href="#glyph0-23" x="68.015625" y="18.148438"/>
  <use xlink:href="#glyph0-5" x="72.351562" y="18.148438"/>
  <use xlink:href="#glyph0-4" x="75.691406" y="18.148438"/>
  <use xlink:href="#glyph0-1" x="77.693359" y="18.148438"/>
</g>
<g style="fill:rgb(0%,0%,0%);fill-opacity:1;">
  <use xlink:href="#glyph0-4" x="13.59375" y="26.148438"/>
  <use xlink:href="#glyph0-18" x="15.595703" y="26.148438"/>
  <use xlink:href="#glyph0-2" x="18.935547" y="26.148438"/>
  <use xlink:href="#glyph0-2" x="22.275391" y="26.148438"/>
  <use xlink:href="#glyph0-7" x="25.615234" y="26.148438"/>
  <use xlink:href="#glyph0-2" x="26.953125" y="26.148438"/>
  <use xlink:href="#glyph0-13" x="30.292969" y="26.148438"/>
  <use xlink:href="#glyph0-10" x="33.632812" y="26.148438"/>
  <use xlink:href="#glyph0-12" x="35.302734" y="26.148438"/>
  <use xlink:href="#glyph0-2" x="38.642578" y="26.148438"/>
  <use xlink:href="#glyph0-10" x="41.982422" y="26.148438"/>
  <use xlink:href="#glyph0-17" x="43.652344" y="26.148438"/>
  <use xlink:href="#glyph0-12" x="46.650391" y="26.148438"/>
  <use xlink:href="#glyph0-16" x="49.990234" y="26.148438"/>
  <use xlink:href="#glyph0-15" x="54.990234" y="26.148438"/>
  <use xlink:href="#glyph0-18" x="58.330078" y="26.148438"/>
  <use xlink:href="#glyph0-3" x="61.669922" y="26.148438"/>
  <use xlink:href="#glyph0-1" x="63.339844" y="26.148438"/>
  <use xlink:href="#glyph0-10" x="66.679688" y="26.148438"/>
  <use xlink:href="#glyph0-2" x="68.349609" y="26.148438"/>
  <use xlink:href="#glyph0-12" x="71.689453" y="26.148438"/>
  <use xlink:href="#glyph0-9" x="75.029297" y="26.148438"/>
  <use xlink:href="#glyph0-1" x="78.369141" y="26.148438"/>
  <use xlink:href="#glyph0-11" x="81.708984" y="26.148438"/>
</g>
<path style="fill:none;stroke-width:0.1;stroke-linecap:butt;stroke-linejoin:miter;stroke:rgb(0%,0%,0%);stroke-opacity:1;stroke-miterlimit:10;" d="M 14.390078 3.950078 L 15.888516 3.930937 " transform="matrix(10,0,0,10,-46.1,-20.2)"/>
<path style="fill-rule:evenodd;fill:rgb(0%,0%,0%);fill-opacity:1;stroke-width:0.1;stroke-linecap:butt;stroke-linejoin:miter;stroke:rgb(0%,0%,0%);stroke-opacity:1;stroke-miterlimit:10;" d="M 16.263516 3.92625 L 15.766641 4.1825 L 15.888516 3.930937 L 15.760391 3.682891 Z M 16.263516 3.92625 " transform="matrix(10,0,0,10,-46.1,-20.2)"/>
<path style="fill:none;stroke-width:0.1;stroke-linecap:butt;stroke-linejoin:miter;stroke:rgb(0%,0%,0%);stroke-opacity:1;stroke-miterlimit:10;" d="M 13.72875 12.000078 L 16.238125 11.958281 " transform="matrix(10,0,0,10,-46.1,-20.2)"/>
<path style="fill-rule:evenodd;fill:rgb(0%,0%,0%);fill-opacity:1;stroke-width:0.1;stroke-linecap:butt;stroke-linejoin:miter;stroke:rgb(0%,0%,0%);stroke-opacity:1;stroke-miterlimit:10;" d="M 16.613125 11.952031 L 16.117422 12.210234 L 16.238125 11.958281 L 16.109219 11.710234 Z M 16.613125 11.952031 " transform="matrix(10,0,0,10,-46.1,-20.2)"/>
<path style="fill-rule:evenodd;fill:rgb(100%,100%,100%);fill-opacity:1;stroke-width:0.1;stroke-linecap:butt;stroke-linejoin:miter;stroke:rgb(0%,0%,0%);stroke-opacity:1;stroke-miterlimit:10;" d="M 39.769766 6.003203 C 39.769766 7.202813 37.958047 8.175859 35.723281 8.175859 C 33.488516 8.175859 31.677188 7.202813 31.677188 6.003203 C 31.677188 4.803203 33.488516 3.830156 35.723281 3.830156 C 37.958047 3.830156 39.769766 4.803203 39.769766 6.003203 " transform="matrix(10,0,0,10,-46.1,-20.2)"/>
<g style="fill:rgb(0%,0%,0%);fill-opacity:1;">
  <use xlink:href="#glyph0-25" x="296.125" y="34.679688"/>
  <use xlink:href="#glyph0-27" x="300.128906" y="34.679688"/>
  <use xlink:href="#glyph0-29" x="304.464844" y="34.679688"/>
  <use xlink:href="#glyph0-28" x="308.46875" y="34.679688"/>
  <use xlink:href="#glyph0-1" x="312.804688" y="34.679688"/>
  <use xlink:href="#glyph0-22" x="316.144531" y="34.679688"/>
  <use xlink:href="#glyph0-22" x="321.144531" y="34.679688"/>
</g>
<g style="fill:rgb(0%,0%,0%);fill-opacity:1;">
  <use xlink:href="#glyph0-11" x="291.613281" y="42.679687"/>
  <use xlink:href="#glyph0-18" x="294.611328" y="42.679687"/>
  <use xlink:href="#glyph0-16" x="297.951172" y="42.679687"/>
  <use xlink:href="#glyph0-16" x="302.951172" y="42.679687"/>
  <use xlink:href="#glyph0-5" x="307.951172" y="42.679687"/>
  <use xlink:href="#glyph0-4" x="311.291016" y="42.679687"/>
  <use xlink:href="#glyph0-7" x="313.292969" y="42.679687"/>
  <use xlink:href="#glyph0-8" x="314.630859" y="42.679687"/>
  <use xlink:href="#glyph0-5" x="317.628906" y="42.679687"/>
  <use xlink:href="#glyph0-3" x="320.96875" y="42.679687"/>
  <use xlink:href="#glyph0-7" x="322.638672" y="42.679687"/>
  <use xlink:href="#glyph0-12" x="323.976562" y="42.679687"/>
  <use xlink:href="#glyph0-2" x="327.316406" y="42.679687"/>
</g>
<g style="fill:rgb(0%,0%,0%);fill-opacity:1;">
  <use xlink:href="#glyph0-11" x="302.460938" y="50.679688"/>
  <use xlink:href="#glyph0-17" x="305.458984" y="50.679688"/>
  <use xlink:href="#glyph0-4" x="308.457031" y="50.679688"/>
  <use xlink:href="#glyph0-7" x="310.458984" y="50.679688"/>
  <use xlink:href="#glyph0-15" x="311.796875" y="50.679688"/>
  <use xlink:href="#glyph0-3" x="315.136719" y="50.679688"/>
  <use xlink:href="#glyph0-11" x="316.806641" y="50.679688"/>
</g>
<path style="fill:none;stroke-width:0.1;stroke-linecap:butt;stroke-linejoin:miter;stroke:rgb(0%,0%,0%);stroke-opacity:1;stroke-miterlimit:10;" d="M 38.847109 15.400078 L 48.052578 15.400078 " transform="matrix(10,0,0,10,-46.1,-20.2)"/>
<path style="fill:none;stroke-width:0.1;stroke-linecap:butt;stroke-linejoin:miter;stroke:rgb(0%,0%,0%);stroke-opacity:1;stroke-miterlimit:10;" d="M 38.847109 11.600078 L 48.052578 11.600078 " transform="matrix(10,0,0,10,-46.1,-20.2)"/>
<g style="fill:rgb(0%,0%,0%);fill-opacity:1;">
  <use xlink:href="#glyph0-30" x="354.875" y="113.601563"/>
  <use xlink:href="#glyph0-12" x="357.873047" y="113.601563"/>
  <use xlink:href="#glyph0-31" x="361.212891" y="113.601563"/>
  <use xlink:href="#glyph0-10" x="364.552734" y="113.601563"/>
  <use xlink:href="#glyph0-11" x="366.222656" y="113.601563"/>
  <use xlink:href="#glyph0-18" x="369.220703" y="113.601563"/>
  <use xlink:href="#glyph0-16" x="372.560547" y="113.601563"/>
  <use xlink:href="#glyph0-16" x="377.560547" y="113.601563"/>
  <use xlink:href="#glyph0-5" x="382.560547" y="113.601563"/>
  <use xlink:href="#glyph0-4" x="385.900391" y="113.601563"/>
  <use xlink:href="#glyph0-32" x="387.902344" y="113.601563"/>
  <use xlink:href="#glyph0-10" x="390.900391" y="113.601563"/>
  <use xlink:href="#glyph0-9" x="392.570312" y="113.601563"/>
  <use xlink:href="#glyph0-12" x="395.910156" y="113.601563"/>
  <use xlink:href="#glyph0-17" x="399.25" y="113.601563"/>
  <use xlink:href="#glyph0-18" x="402.248047" y="113.601563"/>
  <use xlink:href="#glyph0-16" x="405.587891" y="113.601563"/>
  <use xlink:href="#glyph0-1" x="410.587891" y="113.601563"/>
  <use xlink:href="#glyph0-2" x="413.927734" y="113.601563"/>
  <use xlink:href="#glyph0-3" x="417.267578" y="113.601563"/>
  <use xlink:href="#glyph0-11" x="418.9375" y="113.601563"/>
</g>
<g style="fill:rgb(0%,0%,0%);fill-opacity:1;">
  <use xlink:href="#glyph0-7" x="360.195312" y="121.601562"/>
  <use xlink:href="#glyph0-2" x="361.533203" y="121.601562"/>
  <use xlink:href="#glyph0-10" x="364.873047" y="121.601562"/>
  <use xlink:href="#glyph0-16" x="366.542969" y="121.601562"/>
  <use xlink:href="#glyph0-12" x="371.542969" y="121.601562"/>
  <use xlink:href="#glyph0-2" x="374.882812" y="121.601562"/>
  <use xlink:href="#glyph0-13" x="378.222656" y="121.601562"/>
  <use xlink:href="#glyph0-12" x="381.5625" y="121.601562"/>
  <use xlink:href="#glyph0-21" x="384.902344" y="121.601562"/>
  <use xlink:href="#glyph0-31" x="389.238281" y="121.601562"/>
  <use xlink:href="#glyph0-10" x="392.578125" y="121.601562"/>
  <use xlink:href="#glyph0-7" x="394.248047" y="121.601562"/>
  <use xlink:href="#glyph0-2" x="395.585938" y="121.601562"/>
  <use xlink:href="#glyph0-11" x="398.925781" y="121.601562"/>
  <use xlink:href="#glyph0-3" x="401.923828" y="121.601562"/>
  <use xlink:href="#glyph0-5" x="403.59375" y="121.601562"/>
  <use xlink:href="#glyph0-2" x="406.933594" y="121.601562"/>
  <use xlink:href="#glyph0-17" x="410.273438" y="121.601562"/>
  <use xlink:href="#glyph0-1" x="413.271484" y="121.601562"/>
</g>
<path style="fill-rule:evenodd;fill:rgb(100%,100%,100%);fill-opacity:1;stroke-width:0.1;stroke-linecap:butt;stroke-linejoin:miter;stroke:rgb(0%,0%,0%);stroke-opacity:1;stroke-miterlimit:10;" d="M 36.912344 20.9825 C 36.912344 21.968828 35.475625 22.768438 33.702969 22.768438 C 31.930312 22.768438 30.493203 21.968828 30.493203 20.9825 C 30.493203 19.996172 31.930312 19.196562 33.702969 19.196562 C 35.475625 19.196562 36.912344 19.996172 36.912344 20.9825 " transform="matrix(10,0,0,10,-46.1,-20.2)"/>
<g style="fill:rgb(0%,0%,0%);fill-opacity:1;">
  <use xlink:href="#glyph0-25" x="275.089844" y="188.476562"/>
  <use xlink:href="#glyph0-27" x="279.09375" y="188.476562"/>
  <use xlink:href="#glyph0-29" x="283.429688" y="188.476562"/>
  <use xlink:href="#glyph0-28" x="287.433594" y="188.476562"/>
  <use xlink:href="#glyph0-1" x="291.769531" y="188.476562"/>
  <use xlink:href="#glyph0-22" x="295.109375" y="188.476562"/>
  <use xlink:href="#glyph0-22" x="300.109375" y="188.476562"/>
  <use xlink:href="#glyph0-10" x="305.109375" y="188.476562"/>
</g>
<g style="fill:rgb(0%,0%,0%);fill-opacity:1;">
  <use xlink:href="#glyph0-33" x="273.253906" y="196.476562"/>
  <use xlink:href="#glyph0-34" x="277.257812" y="196.476562"/>
  <use xlink:href="#glyph0-26" x="280.919922" y="196.476562"/>
  <use xlink:href="#glyph0-10" x="284.259766" y="196.476562"/>
  <use xlink:href="#glyph0-15" x="285.929688" y="196.476562"/>
  <use xlink:href="#glyph0-4" x="289.269531" y="196.476562"/>
  <use xlink:href="#glyph0-12" x="291.271484" y="196.476562"/>
  <use xlink:href="#glyph0-17" x="294.611328" y="196.476562"/>
  <use xlink:href="#glyph0-1" x="297.609375" y="196.476562"/>
  <use xlink:href="#glyph0-11" x="300.949219" y="196.476562"/>
  <use xlink:href="#glyph0-11" x="303.947266" y="196.476562"/>
  <use xlink:href="#glyph0-10" x="306.945312" y="196.476562"/>
</g>
<path style="fill:none;stroke-width:0.1;stroke-linecap:butt;stroke-linejoin:miter;stroke:rgb(0%,0%,0%);stroke-opacity:1;stroke-miterlimit:10;" d="M 48.052578 13.500078 L 49.102578 13.500078 L 49.102578 21.666094 L 37.154922 21.666094 " transform="matrix(10,0,0,10,-46.1,-20.2)"/>
<path style="fill-rule:evenodd;fill:rgb(0%,0%,0%);fill-opacity:1;stroke-width:0.1;stroke-linecap:butt;stroke-linejoin:miter;stroke:rgb(0%,0%,0%);stroke-opacity:1;stroke-miterlimit:10;" d="M 36.779922 21.666094 L 37.279922 21.416094 L 37.154922 21.666094 L 37.279922 21.916094 Z M 36.779922 21.666094 " transform="matrix(10,0,0,10,-46.1,-20.2)"/>
<path style="fill:none;stroke-width:0.1;stroke-linecap:butt;stroke-linejoin:miter;stroke:rgb(0%,0%,0%);stroke-opacity:1;stroke-miterlimit:10;" d="M 16.640469 22.850078 L 27.454141 22.850078 " transform="matrix(10,0,0,10,-46.1,-20.2)"/>
<path style="fill:none;stroke-width:0.1;stroke-linecap:butt;stroke-linejoin:miter;stroke:rgb(0%,0%,0%);stroke-opacity:1;stroke-miterlimit:10;" d="M 16.640469 19.050078 L 27.454141 19.050078 " transform="matrix(10,0,0,10,-46.1,-20.2)"/>
<g style="fill:rgb(0%,0%,0%);fill-opacity:1;">
  <use xlink:href="#glyph0-25" x="148.679688" y="188.101563"/>
  <use xlink:href="#glyph0-27" x="152.683594" y="188.101563"/>
  <use xlink:href="#glyph0-29" x="157.019531" y="188.101563"/>
  <use xlink:href="#glyph0-28" x="161.023438" y="188.101563"/>
  <use xlink:href="#glyph0-1" x="165.359375" y="188.101563"/>
  <use xlink:href="#glyph0-22" x="168.699219" y="188.101563"/>
  <use xlink:href="#glyph0-22" x="173.699219" y="188.101563"/>
  <use xlink:href="#glyph0-10" x="178.699219" y="188.101563"/>
  <use xlink:href="#glyph0-9" x="180.369141" y="188.101563"/>
  <use xlink:href="#glyph0-5" x="183.708984" y="188.101563"/>
  <use xlink:href="#glyph0-3" x="187.048828" y="188.101563"/>
  <use xlink:href="#glyph0-5" x="188.71875" y="188.101563"/>
  <use xlink:href="#glyph0-10" x="192.058594" y="188.101563"/>
  <use xlink:href="#glyph0-7" x="193.728516" y="188.101563"/>
  <use xlink:href="#glyph0-2" x="195.066406" y="188.101563"/>
  <use xlink:href="#glyph0-10" x="198.40625" y="188.101563"/>
</g>
<g style="fill:rgb(0%,0%,0%);fill-opacity:1;">
  <use xlink:href="#glyph0-19" x="134.324219" y="196.101562"/>
  <use xlink:href="#glyph0-15" x="138.992188" y="196.101562"/>
  <use xlink:href="#glyph0-1" x="142.332031" y="196.101562"/>
  <use xlink:href="#glyph0-2" x="145.671875" y="196.101562"/>
  <use xlink:href="#glyph0-10" x="149.011719" y="196.101562"/>
  <use xlink:href="#glyph0-20" x="150.681641" y="196.101562"/>
  <use xlink:href="#glyph0-21" x="154.685547" y="196.101562"/>
  <use xlink:href="#glyph0-22" x="159.021484" y="196.101562"/>
  <use xlink:href="#glyph0-12" x="164.021484" y="196.101562"/>
  <use xlink:href="#glyph0-21" x="167.361328" y="196.101562"/>
  <use xlink:href="#glyph0-10" x="171.697266" y="196.101562"/>
  <use xlink:href="#glyph0-9" x="173.367188" y="196.101562"/>
  <use xlink:href="#glyph0-5" x="176.707031" y="196.101562"/>
  <use xlink:href="#glyph0-3" x="180.046875" y="196.101562"/>
  <use xlink:href="#glyph0-5" x="181.716797" y="196.101562"/>
  <use xlink:href="#glyph0-23" x="185.056641" y="196.101562"/>
  <use xlink:href="#glyph0-5" x="189.392578" y="196.101562"/>
  <use xlink:href="#glyph0-4" x="192.732422" y="196.101562"/>
  <use xlink:href="#glyph0-1" x="194.734375" y="196.101562"/>
  <use xlink:href="#glyph0-24" x="198.074219" y="196.101562"/>
  <use xlink:href="#glyph0-12" x="201.414063" y="196.101562"/>
  <use xlink:href="#glyph0-18" x="204.753906" y="196.101562"/>
  <use xlink:href="#glyph0-11" x="208.09375" y="196.101562"/>
  <use xlink:href="#glyph0-1" x="211.091797" y="196.101562"/>
</g>
<path style="fill:none;stroke-width:0.1;stroke-linecap:butt;stroke-linejoin:miter;stroke:rgb(0%,0%,0%);stroke-opacity:1;stroke-miterlimit:10;" d="M 30.493203 20.9825 L 27.931094 20.955156 " transform="matrix(10,0,0,10,-46.1,-20.2)"/>
<path style="fill-rule:evenodd;fill:rgb(0%,0%,0%);fill-opacity:1;stroke-width:0.1;stroke-linecap:butt;stroke-linejoin:miter;stroke:rgb(0%,0%,0%);stroke-opacity:1;stroke-miterlimit:10;" d="M 27.556094 20.95125 L 28.058828 20.706719 L 27.931094 20.955156 L 28.053359 21.206719 Z M 27.556094 20.95125 " transform="matrix(10,0,0,10,-46.1,-20.2)"/>
<path style="fill:none;stroke-width:0.1;stroke-linecap:butt;stroke-linejoin:miter;stroke:rgb(0%,0%,0%);stroke-opacity:1;stroke-miterlimit:10;" d="M 27.529141 11.000078 L 29.757266 11.000078 L 29.757266 6.834453 L 31.498281 6.834453 " transform="matrix(10,0,0,10,-46.1,-20.2)"/>
<path style="fill-rule:evenodd;fill:rgb(0%,0%,0%);fill-opacity:1;stroke-width:0.1;stroke-linecap:butt;stroke-linejoin:miter;stroke:rgb(0%,0%,0%);stroke-opacity:1;stroke-miterlimit:10;" d="M 31.873281 6.834453 L 31.373281 7.084453 L 31.498281 6.834453 L 31.373281 6.584453 Z M 31.873281 6.834453 " transform="matrix(10,0,0,10,-46.1,-20.2)"/>
<path style="fill:none;stroke-width:0.1;stroke-linecap:butt;stroke-linejoin:miter;stroke:rgb(0%,0%,0%);stroke-opacity:1;stroke-miterlimit:10;" d="M 24.8225 3.925078 L 28.40375 3.925078 L 28.40375 5.171563 L 31.498281 5.171563 " transform="matrix(10,0,0,10,-46.1,-20.2)"/>
<path style="fill-rule:evenodd;fill:rgb(0%,0%,0%);fill-opacity:1;stroke-width:0.1;stroke-linecap:butt;stroke-linejoin:miter;stroke:rgb(0%,0%,0%);stroke-opacity:1;stroke-miterlimit:10;" d="M 31.873281 5.171563 L 31.373281 5.421563 L 31.498281 5.171563 L 31.373281 4.921563 Z M 31.873281 5.171563 " transform="matrix(10,0,0,10,-46.1,-20.2)"/>
<path style="fill:none;stroke-width:0.1;stroke-linecap:butt;stroke-linejoin:miter;stroke:rgb(0%,0%,0%);stroke-opacity:1;stroke-miterlimit:10;" d="M 39.769766 6.003203 L 40.819766 6.003203 L 40.819766 9.751641 L 37.797109 9.751641 L 37.797109 13.500078 L 38.360391 13.500078 " transform="matrix(10,0,0,10,-46.1,-20.2)"/>
<path style="fill-rule:evenodd;fill:rgb(0%,0%,0%);fill-opacity:1;stroke-width:0.1;stroke-linecap:butt;stroke-linejoin:miter;stroke:rgb(0%,0%,0%);stroke-opacity:1;stroke-miterlimit:10;" d="M 38.735391 13.500078 L 38.235391 13.750078 L 38.360391 13.500078 L 38.235391 13.250078 Z M 38.735391 13.500078 " transform="matrix(10,0,0,10,-46.1,-20.2)"/>
<path style="fill:none;stroke-width:0.1;stroke-linecap:butt;stroke-linejoin:miter;stroke:rgb(0%,0%,0%);stroke-opacity:1;stroke-miterlimit:10;" d="M 27.529141 12.900078 L 33.702969 12.900078 L 33.702969 18.709844 " transform="matrix(10,0,0,10,-46.1,-20.2)"/>
<path style="fill-rule:evenodd;fill:rgb(0%,0%,0%);fill-opacity:1;stroke-width:0.1;stroke-linecap:butt;stroke-linejoin:miter;stroke:rgb(0%,0%,0%);stroke-opacity:1;stroke-miterlimit:10;" d="M 33.702969 19.084844 L 33.452969 18.584844 L 33.702969 18.709844 L 33.952969 18.584844 Z M 33.702969 19.084844 " transform="matrix(10,0,0,10,-46.1,-20.2)"/>
</g>
</svg>
